<?xml version="1.0" encoding="UTF-8" standalone="no"?>
<!-- Created with Inkscape (http://www.inkscape.org/) -->

<svg
   version="1.1"
   id="svg1"
   width="687"
   height="588"
   viewBox="0 0 687 588"
   sodipodi:docname="body_preview.svg"
   inkscape:version="1.4.2 (f4327f4, 2025-05-13)"
   inkscape:export-filename="Макет свитшота передняя часть ПОЛОЧКА.svg"
   inkscape:export-xdpi="96"
   inkscape:export-ydpi="96"
   xmlns:inkscape="http://www.inkscape.org/namespaces/inkscape"
   xmlns:sodipodi="http://sodipodi.sourceforge.net/DTD/sodipodi-0.dtd"
   xmlns="http://www.w3.org/2000/svg"
   xmlns:svg="http://www.w3.org/2000/svg">
  <defs
     id="defs1" />
  <sodipodi:namedview
     id="namedview1"
     pagecolor="#ffffff"
     bordercolor="#000000"
     borderopacity="0.25"
     inkscape:showpageshadow="2"
     inkscape:pageopacity="0.0"
     inkscape:pagecheckerboard="0"
     inkscape:deskcolor="#d1d1d1"
     inkscape:zoom="1.0642678"
     inkscape:cx="27.248781"
     inkscape:cy="240.07115"
     inkscape:window-width="2560"
     inkscape:window-height="1369"
     inkscape:window-x="-8"
     inkscape:window-y="-8"
     inkscape:window-maximized="1"
     inkscape:current-layer="layer2">
    <inkscape:page
       x="0"
       y="0"
       width="687"
       height="588"
       id="page2"
       margin="0"
       bleed="0" />
  </sodipodi:namedview>
  <g
     inkscape:groupmode="layer"
     id="layer2"
     inkscape:label="ПОЛОЧКА"
     style="display:inline">
    <path
       style="display:inline;opacity:1;fill:none;stroke:#000000;stroke-width:1.31005;stroke-opacity:1"
       d="m 158.4375,197.24116 c 0.6607,57.34131 0.21799,71.86075 -5.69829,136.32727 l -4.76465,182.48418 c 0.65328,16.38273 -0.38032,29.6585 4.05332,46.7973 119.00818,5.56788 237.23509,2.96512 356.19649,0.28587 1.90919,-16.59001 2.3204,-32.21611 3.49067,-49.54503 l -4.30827,-183.40891 c -5.41518,-44.55415 -8.20375,-92.63498 -6.77013,-142.17268 3.51587,-48.58564 6.37766,-83.37768 22.15678,-119.40043 C 487.18319,44.067383 458.39666,45.193088 416.16392,23.833581 403.22988,75.169981 374.20304,104.30074 331.0396,107.00574 270.66049,109.68478 248.84833,40.646983 244.07421,24.06276 229.79828,33.960098 154.87,52.287095 136.92285,68.714099 151.96678,100.76373 157.69071,146.71086 158.4375,197.24116 Z"
       id="path1"
       sodipodi:nodetypes="cccccccccccccc" />
  </g>
</svg>
