<?xml version="1.0" encoding="UTF-8" standalone="no"?>
<!-- Created with Inkscape (http://www.inkscape.org/) -->

<svg
   version="1.1"
   id="svg1"
   width="687"
   height="588"
   viewBox="0 0 687 588"
   sodipodi:docname="Макет свитшота передняя часть ПОЛОЧКА.svg"
   inkscape:version="1.4.2 (f4327f4, 2025-05-13)"
   inkscape:export-filename="Макет свитшота передняя часть ПОЛОЧКА.svg"
   inkscape:export-xdpi="96"
   inkscape:export-ydpi="96"
   xmlns:inkscape="http://www.inkscape.org/namespaces/inkscape"
   xmlns:sodipodi="http://sodipodi.sourceforge.net/DTD/sodipodi-0.dtd"
   xmlns="http://www.w3.org/2000/svg"
   xmlns:svg="http://www.w3.org/2000/svg">
  <defs
     id="defs1" />
  <sodipodi:namedview
     id="namedview1"
     pagecolor="#ffffff"
     bordercolor="#000000"
     borderopacity="0.25"
     inkscape:showpageshadow="2"
     inkscape:pageopacity="0.0"
     inkscape:pagecheckerboard="0"
     inkscape:deskcolor="#d1d1d1"
     inkscape:zoom="2.1285356"
     inkscape:cx="423.29572"
     inkscape:cy="237.01741"
     inkscape:window-width="1920"
     inkscape:window-height="1129"
     inkscape:window-x="-8"
     inkscape:window-y="-8"
     inkscape:window-maximized="1"
     inkscape:current-layer="layer2">
    <inkscape:page
       x="0"
       y="0"
       width="687"
       height="588"
       id="page2"
       margin="0"
       bleed="0" />
  </sodipodi:namedview>
  <g
     inkscape:groupmode="layer"
     id="layer2"
     inkscape:label="ПОЛОЧКА"
     style="display:inline">
    <path
       style="display:inline;opacity:1;fill:none;stroke:#000000;stroke-opacity:1"
       d="m 211.41295,189.80184 c 0.50434,43.7706 0.1664,54.85379 -4.3497,104.06331 l -3.63702,139.29648 c 0.49867,12.5055 -0.29031,22.63935 3.09404,35.72199 90.84305,4.25015 181.08974,2.26338 271.89708,0.21821 1.45735,-12.66372 1.77124,-24.59167 2.66455,-37.81943 l -3.28865,-140.00235 c -4.1336,-34.00972 -6.26221,-70.71148 -5.16787,-108.52531 2.68378,-37.0871 4.86828,-63.64506 16.91303,-91.142465 -27.18252,-18.733259 -49.15627,-17.873972 -81.39398,-34.178425 -9.873,39.186853 -32.03019,61.42336 -64.97833,63.48818 -46.08946,2.04501 -62.73943,-50.653923 -66.38368,-63.313241 -10.89731,7.554979 -68.09266,21.544616 -81.79234,34.083915 11.48355,24.464586 15.85282,59.537616 16.42287,98.109136 z"
       id="path1"
       sodipodi:nodetypes="cccccccccccccc" />
  </g>
</svg>
