<?xml version="1.0" encoding="UTF-8" standalone="no"?>
<!-- Created with Inkscape (http://www.inkscape.org/) -->

<svg
   version="1.1"
   id="svg1"
   width="687"
   height="588"
   viewBox="0 0 687 588"
   sodipodi:docname="body.svg"
   inkscape:version="1.4.2 (f4327f4, 2025-05-13)"
   inkscape:export-filename="Для работы\Макет свитшота передняя часть НИЖНЯЯ МАНЖЕТА.svg"
   inkscape:export-xdpi="96"
   inkscape:export-ydpi="96"
   xmlns:inkscape="http://www.inkscape.org/namespaces/inkscape"
   xmlns:sodipodi="http://sodipodi.sourceforge.net/DTD/sodipodi-0.dtd"
   xmlns="http://www.w3.org/2000/svg"
   xmlns:svg="http://www.w3.org/2000/svg">
  <defs
     id="defs1" />
  <sodipodi:namedview
     id="namedview1"
     pagecolor="#ffffff"
     bordercolor="#000000"
     borderopacity="0.25"
     inkscape:showpageshadow="2"
     inkscape:pageopacity="0.0"
     inkscape:pagecheckerboard="0"
     inkscape:deskcolor="#d1d1d1"
     inkscape:zoom="1.0642678"
     inkscape:cx="338.73053"
     inkscape:cy="244.29941"
     inkscape:window-width="1278"
     inkscape:window-height="1360"
     inkscape:window-x="-7"
     inkscape:window-y="0"
     inkscape:window-maximized="0"
     inkscape:current-layer="layer2">
    <inkscape:page
       x="0"
       y="0"
       width="687"
       height="588"
       id="page2"
       margin="0"
       bleed="0" />
  </sodipodi:namedview>
  <g
     inkscape:groupmode="layer"
     id="layer2"
     inkscape:label="ПОЛОЧКА"
     style="display:inline">
    <path
       style="display:inline;opacity:1;fill:none;stroke:#000000;stroke-opacity:1"
       d="m 194.33898,92.020339 c 14.85976,28.670731 16.56159,63.098061 16.60416,98.251311 1.87922,35.39209 0.3132,69.53136 -4.69807,102.41782 m 0,0 -2.81884,140.47216 c 0.49867,12.5055 -0.29031,22.63935 3.09404,35.72199 90.84305,4.25015 181.08974,2.26338 271.89708,0.21821 1.45735,-12.66372 1.77124,-24.59167 2.66455,-37.81943 l -3.28865,-140.00235 c -4.1336,-34.00972 -6.26221,-70.71148 -5.16787,-108.52531 2.68378,-37.0871 4.86828,-63.64506 16.91303,-91.142465 -26.9185,-19.261302 -49.14232,-17.901882 -81.39398,-34.178425 -9.873,39.186853 -32.03019,61.42336 -64.97833,63.48818 -33.77401,-1.77175 -55.5887,-23.032766 -65.44407,-63.783047 -41.10467,19.618135 -58.8159,17.52356 -83.38305,34.881356"
       id="path1"
       sodipodi:nodetypes="ccccccccccccccc" />
  </g>
</svg>
