<?xml version="1.0" encoding="UTF-8" standalone="no"?>
<!-- Created with Inkscape (http://www.inkscape.org/) -->

<svg
   version="1.1"
   id="svg1"
   width="687"
   height="588"
   viewBox="0 0 687 588"
   sodipodi:docname="neck.svg"
   inkscape:version="1.4.2 (f4327f4, 2025-05-13)"
   inkscape:export-filename="Для работы\Макет свитшота передняя часть ГОРЛОВИНА.svg"
   inkscape:export-xdpi="96"
   inkscape:export-ydpi="96"
   xmlns:inkscape="http://www.inkscape.org/namespaces/inkscape"
   xmlns:sodipodi="http://sodipodi.sourceforge.net/DTD/sodipodi-0.dtd"
   xmlns="http://www.w3.org/2000/svg"
   xmlns:svg="http://www.w3.org/2000/svg">
  <defs
     id="defs1" />
  <sodipodi:namedview
     id="namedview1"
     pagecolor="#ffffff"
     bordercolor="#000000"
     borderopacity="0.25"
     inkscape:showpageshadow="2"
     inkscape:pageopacity="0.0"
     inkscape:pagecheckerboard="0"
     inkscape:deskcolor="#d1d1d1"
     inkscape:zoom="1.505102"
     inkscape:cx="263.10509"
     inkscape:cy="252.80679"
     inkscape:window-width="2560"
     inkscape:window-height="1369"
     inkscape:window-x="-8"
     inkscape:window-y="-8"
     inkscape:window-maximized="1"
     inkscape:current-layer="layer3">
    <inkscape:page
       x="0"
       y="0"
       width="687"
       height="588"
       id="page2"
       margin="0"
       bleed="0" />
  </sodipodi:namedview>
  <g
     inkscape:groupmode="layer"
     id="layer3"
     inkscape:label="ГОРЛОВИНА">
    <path
       d="m 408.14443,57.433848 c -9.873,39.186852 -32.03019,61.423362 -64.97833,63.488182 -46.08946,2.04501 -62.73943,-50.653925 -66.38368,-63.313243 l -13.12548,5.953086 c 12.93487,44.939847 39.10854,69.789077 79.58632,70.373097 35.84646,-1.7233 63.45196,-21.09761 77.92107,-70.544686 z"
       style="display:inline;fill:none;stroke:#000000;stroke-opacity:1"
       id="path1-82"
       sodipodi:nodetypes="ccccccc" />
    <path
       style="display:inline;fill:none;stroke:#000000"
       d="m 408.14443,57.433847 c -25.37861,28.19742 -109.30787,25.47322 -131.36201,0.17494 3.01127,10.34022 6.758,19.53362 11.24019,27.5802 32.76365,13.28814 69.29228,13.28814 109.58588,0 4.71599,-8.90758 8.22797,-18.1593 10.53594,-27.75514 z"
       id="path2"
       sodipodi:nodetypes="ccccc" />
  </g>
</svg>
