<?xml version="1.0" encoding="UTF-8" standalone="no"?>
<!-- Created with Inkscape (http://www.inkscape.org/) -->

<svg
   version="1.1"
   id="svg1"
   width="687"
   height="588"
   viewBox="0 0 687 588"
   sodipodi:docname="neck_preview.svg"
   inkscape:version="1.4.2 (f4327f4, 2025-05-13)"
   inkscape:export-filename="Для работы\Макет свитшота передняя часть ГОРЛОВИНА.svg"
   inkscape:export-xdpi="96"
   inkscape:export-ydpi="96"
   xmlns:inkscape="http://www.inkscape.org/namespaces/inkscape"
   xmlns:sodipodi="http://sodipodi.sourceforge.net/DTD/sodipodi-0.dtd"
   xmlns="http://www.w3.org/2000/svg"
   xmlns:svg="http://www.w3.org/2000/svg">
  <defs
     id="defs1" />
  <sodipodi:namedview
     id="namedview1"
     pagecolor="#ffffff"
     bordercolor="#000000"
     borderopacity="0.25"
     inkscape:showpageshadow="2"
     inkscape:pageopacity="0.0"
     inkscape:pagecheckerboard="0"
     inkscape:deskcolor="#d1d1d1"
     inkscape:zoom="1.505102"
     inkscape:cx="276.39323"
     inkscape:cy="244.1695"
     inkscape:window-width="2560"
     inkscape:window-height="1369"
     inkscape:window-x="-8"
     inkscape:window-y="-8"
     inkscape:window-maximized="1"
     inkscape:current-layer="layer3">
    <inkscape:page
       x="0"
       y="0"
       width="687"
       height="588"
       id="page2"
       margin="0"
       bleed="0" />
  </sodipodi:namedview>
  <g
     inkscape:groupmode="layer"
     id="layer3"
     inkscape:label="ГОРЛОВИНА">
    <path
       d="M 605.49583,129.65795 C 565.78141,287.28818 476.65348,376.73517 344.11864,385.04097 158.72247,393.26708 91.747498,181.28413 77.088398,130.36166 L 24.290779,154.30813 C 76.321668,335.07992 181.60599,435.03665 344.42902,437.38589 488.62243,430.45387 599.66634,352.52015 657.86875,153.61791 Z"
       style="display:inline;fill:none;stroke:#000000;stroke-width:4.02252;stroke-opacity:1"
       id="path1-82"
       sodipodi:nodetypes="ccccccc" />
    <path
       style="display:inline;fill:none;stroke:#000000;stroke-width:4.02252"
       d="M 605.49583,129.65795 C 503.40965,243.08288 165.8018,232.12471 77.088398,130.36166 89.20132,171.95548 104.27264,208.9362 122.30238,241.3038 c 131.79272,53.45192 278.73018,53.45192 440.81233,0 18.9702,-35.831 33.09724,-73.04631 42.38112,-111.64585 z"
       id="path2"
       sodipodi:nodetypes="ccccc" />
  </g>
</svg>
