<?xml version="1.0" encoding="UTF-8" standalone="no"?>
<!-- Created with Inkscape (http://www.inkscape.org/) -->

<svg
   version="1.1"
   id="svg1"
   width="415"
   height="391"
   viewBox="0 0 415 391"
   sodipodi:docname="Макет свитшота задняя часть.svg"
   xml:space="preserve"
   inkscape:version="1.4.2 (f4327f4, 2025-05-13)"
   xmlns:inkscape="http://www.inkscape.org/namespaces/inkscape"
   xmlns:sodipodi="http://sodipodi.sourceforge.net/DTD/sodipodi-0.dtd"
   xmlns="http://www.w3.org/2000/svg"
   xmlns:svg="http://www.w3.org/2000/svg"><defs
     id="defs1" /><sodipodi:namedview
     id="namedview1"
     pagecolor="#ffffff"
     bordercolor="#000000"
     borderopacity="0.25"
     inkscape:showpageshadow="2"
     inkscape:pageopacity="0.0"
     inkscape:pagecheckerboard="0"
     inkscape:deskcolor="#d1d1d1"
     showgrid="false"
     inkscape:zoom="6.4019386"
     inkscape:cx="214.07578"
     inkscape:cy="343.88021"
     inkscape:window-width="1920"
     inkscape:window-height="1129"
     inkscape:window-x="-8"
     inkscape:window-y="-8"
     inkscape:window-maximized="1"
     inkscape:current-layer="layer11"><inkscape:page
       x="0"
       y="0"
       width="415"
       height="391"
       id="page2"
       margin="0"
       bleed="0" /></sodipodi:namedview><g
     inkscape:groupmode="layer"
     id="layer4"
     inkscape:label="СПИНКА"
     style="display:inline"><path
       style="display:inline;fill:none;stroke:#000000"
       d="m 255.86,44.83017 c -12.45616,17.410793 -74.31275,17.382638 -88.02022,-0.468608 -20.03486,10.144508 -39.56625,12.044736 -55.39967,23.455952 15.31068,28.778183 12.65991,101.718596 7.51074,141.378536 -0.44181,32.25198 -3.40536,64.92424 -1.32543,96.75593 0.36817,5.30169 1.03089,10.75066 1.98814,16.34689 61.66794,2.29097 122.73001,1.90439 183.14833,-0.38658 0.73068,-6.53827 1.33779,-9.01347 1.69331,-16.45686 2.02047,-30.35525 -0.69433,-65.74313 -1.49136,-98.46842 C 299.36258,162.85329 296.17166,97.231912 311.91638,67.817514 296.82435,56.888377 276.93942,53.905141 255.86,44.83017 Z"
       id="path1"
       sodipodi:nodetypes="ccccccccccc" /></g></svg>
