<?xml version="1.0" encoding="UTF-8" standalone="no"?>
<!-- Created with Inkscape (http://www.inkscape.org/) -->

<svg
   version="1.1"
   id="svg1"
   width="415"
   height="391"
   viewBox="0 0 415 391"
   sodipodi:docname="body_preview.svg"
   xml:space="preserve"
   inkscape:version="1.4.2 (f4327f4, 2025-05-13)"
   xmlns:inkscape="http://www.inkscape.org/namespaces/inkscape"
   xmlns:sodipodi="http://sodipodi.sourceforge.net/DTD/sodipodi-0.dtd"
   xmlns="http://www.w3.org/2000/svg"
   xmlns:svg="http://www.w3.org/2000/svg"><defs
     id="defs1" /><sodipodi:namedview
     id="namedview1"
     pagecolor="#ffffff"
     bordercolor="#000000"
     borderopacity="0.25"
     inkscape:showpageshadow="2"
     inkscape:pageopacity="0.0"
     inkscape:pagecheckerboard="0"
     inkscape:deskcolor="#d1d1d1"
     showgrid="false"
     inkscape:zoom="1.6004847"
     inkscape:cx="93.721611"
     inkscape:cy="207.74957"
     inkscape:window-width="2560"
     inkscape:window-height="1369"
     inkscape:window-x="-8"
     inkscape:window-y="-8"
     inkscape:window-maximized="1"
     inkscape:current-layer="layer4"><inkscape:page
       x="0"
       y="0"
       width="415"
       height="391"
       id="page2"
       margin="0"
       bleed="0" /></sodipodi:namedview><g
     inkscape:groupmode="layer"
     id="layer4"
     inkscape:label="СПИНКА"
     style="display:inline"><path
       style="display:inline;fill:none;stroke:#000000;stroke-width:1.32061"
       d="M 266.30855,9.4552936 C 249.85888,32.448068 168.17078,32.410881 150.06862,8.8364478 123.6105,22.233333 97.817255,24.742782 76.90757,39.812486 c 20.219355,38.0046 16.718737,134.330064 9.918719,186.705164 -0.583456,42.59211 -4.497135,85.73925 -1.750369,127.77633 0.486207,7.00144 1.361398,14.19737 2.625547,21.58778 81.438963,3.02547 162.077823,2.51494 241.866543,-0.51052 0.96493,-8.63447 1.76669,-11.90323 2.23619,-21.73301 2.66825,-40.08728 -0.91694,-86.82068 -1.96949,-130.03785 C 323.75826,165.31718 319.54431,78.657281 340.33686,39.812486 320.40626,25.379419 294.14613,21.439743 266.30855,9.4552936 Z"
       id="path1"
       sodipodi:nodetypes="ccccccccccc" /></g></svg>
