<?xml version="1.0" encoding="UTF-8" standalone="no"?>
<!-- Created with Inkscape (http://www.inkscape.org/) -->

<svg
   width="210mm"
   height="297mm"
   viewBox="0 0 210 297"
   version="1.1"
   id="svg1"
   xml:space="preserve"
   inkscape:version="1.4.2 (f4327f4, 2025-05-13)"
   sodipodi:docname="leg_preview.svg"
   inkscape:export-filename="Для работы\СПОРТ. ШТАНЫ\Базовый перед спорт штанов ПРАВАЯ НОГА.svg"
   inkscape:export-xdpi="96"
   inkscape:export-ydpi="96"
   xmlns:inkscape="http://www.inkscape.org/namespaces/inkscape"
   xmlns:sodipodi="http://sodipodi.sourceforge.net/DTD/sodipodi-0.dtd"
   xmlns="http://www.w3.org/2000/svg"
   xmlns:svg="http://www.w3.org/2000/svg"><sodipodi:namedview
     id="namedview1"
     pagecolor="#ffffff"
     bordercolor="#000000"
     borderopacity="0.25"
     inkscape:showpageshadow="2"
     inkscape:pageopacity="0.0"
     inkscape:pagecheckerboard="0"
     inkscape:deskcolor="#d1d1d1"
     inkscape:document-units="mm"
     inkscape:zoom="0.78840488"
     inkscape:cx="-41.856667"
     inkscape:cy="565.065"
     inkscape:window-width="2560"
     inkscape:window-height="1369"
     inkscape:window-x="-8"
     inkscape:window-y="-8"
     inkscape:window-maximized="1"
     inkscape:current-layer="layer4"><inkscape:page
       x="0"
       y="0"
       width="210"
       height="297"
       id="page2"
       margin="0"
       bleed="0" /></sodipodi:namedview><defs
     id="defs1" /><g
     inkscape:groupmode="layer"
     id="layer4"
     inkscape:label="левая нога"><path
       d="m 120.46065,15.55251 c 15.31175,-0.532497 29.88273,-2.353337 44.35272,-4.232637 13.55394,30.720664 14.25119,46.747981 14.45603,62.212542 0.52518,65.328455 -0.21149,130.013705 -2.83957,195.930785 -0.2756,6.65534 0.0712,11.25495 -4.07035,16.44559 -12.23476,1.53112 -22.99825,1.5316 -32.90868,-0.0534 -4.32256,-2.54542 -4.37246,-10.428 -4.84019,-17.55373 -3.19135,-60.24795 -7.03912,-182.706841 -14.08542,-184.701554 z"
       style="display:inline;fill:none;stroke:#000000;stroke-width:0.407042"
       id="path1-8" /><path
       style="display:inline;fill:none;stroke:#000000;stroke-width:0.40218"
       d="M 87.730707,16.676811 C 72.601858,16.150677 58.204927,14.351593 43.907772,12.494733 30.515735,42.848453 29.826813,58.684323 29.624417,73.964161 29.105511,138.5123 29.833373,202.42489 32.430076,267.55461 c 0.272295,6.57583 -0.07044,11.12051 4.021726,16.24914 12.088616,1.51283 22.723543,1.5133 32.515602,-0.0527 4.270911,-2.51502 4.320234,-10.30344 4.782371,-17.34406 3.15323,-59.52829 6.955031,-180.524447 13.917166,-182.495342 z"
       id="path1"
       sodipodi:nodetypes="ccccccccc" /></g></svg>
