<?xml version="1.0" encoding="UTF-8" standalone="no"?>
<!-- Created with Inkscape (http://www.inkscape.org/) -->

<svg
   version="1.1"
   id="svg1"
   width="687"
   height="588"
   viewBox="0 0 687 588"
   sodipodi:docname="neck2_preview.svg"
   inkscape:version="1.4.2 (f4327f4, 2025-05-13)"
   inkscape:export-filename="Для работы\Макет свитшота передняя часть ГОРЛОВИНА.svg"
   inkscape:export-xdpi="96"
   inkscape:export-ydpi="96"
   xmlns:inkscape="http://www.inkscape.org/namespaces/inkscape"
   xmlns:sodipodi="http://sodipodi.sourceforge.net/DTD/sodipodi-0.dtd"
   xmlns="http://www.w3.org/2000/svg"
   xmlns:svg="http://www.w3.org/2000/svg">
  <defs
     id="defs1" />
  <sodipodi:namedview
     id="namedview1"
     pagecolor="#ffffff"
     bordercolor="#000000"
     borderopacity="0.25"
     inkscape:showpageshadow="2"
     inkscape:pageopacity="0.0"
     inkscape:pagecheckerboard="0"
     inkscape:deskcolor="#d1d1d1"
     inkscape:zoom="1.505102"
     inkscape:cx="326.22374"
     inkscape:cy="301.30848"
     inkscape:window-width="2560"
     inkscape:window-height="1369"
     inkscape:window-x="-8"
     inkscape:window-y="-8"
     inkscape:window-maximized="1"
     inkscape:current-layer="layer3">
    <inkscape:page
       x="0"
       y="0"
       width="687"
       height="588"
       id="page2"
       margin="0"
       bleed="0" />
  </sodipodi:namedview>
  <g
     inkscape:groupmode="layer"
     id="layer3"
     inkscape:label="ГОРЛОВИНА">
    <path
       d="M 605.82068,135.01974 C 567.30487,287.89255 480.8669,374.63996 352.33208,382.69508 172.53135,390.67292 107.57774,185.0878 93.36106,135.7022 l -51.20414,23.22371 c 50.460547,175.31598 152.56731,272.25594 310.47618,274.53427 139.84152,-6.7228 247.53403,-82.30441 303.97984,-275.20366 z"
       style="display:inline;fill:none;stroke:#000000;stroke-width:3.90113;stroke-opacity:1"
       id="path1-82"
       sodipodi:nodetypes="ccccccc" />
    <path
       style="display:inline;fill:none;stroke:#000000;stroke-width:3.90113"
       d="m 605.82068,135.01974 c -236.37764,264.22173 -426.42366,99.37422 -512.45962,0.68246 29.15869,103.56918 69.3196,147.67452 91.58964,174.88889 127.81508,51.8387 166.89328,58.07273 324.08365,6.23403 45.88929,-40.2479 83.2007,-121.00295 96.78633,-181.80538 z"
       id="path2"
       sodipodi:nodetypes="ccccc" />
  </g>
</svg>
