<?xml version="1.0" encoding="UTF-8" standalone="no"?>
<!-- Created with Inkscape (http://www.inkscape.org/) -->

<svg
   version="1.1"
   id="svg1"
   width="687"
   height="588"
   viewBox="0 0 687 588"
   sodipodi:docname="hood.svg"
   inkscape:version="1.4.2 (f4327f4, 2025-05-13)"
   inkscape:export-filename="Для работы\ТЕСТ2.svg"
   inkscape:export-xdpi="96"
   inkscape:export-ydpi="96"
   xml:space="preserve"
   xmlns:inkscape="http://www.inkscape.org/namespaces/inkscape"
   xmlns:sodipodi="http://sodipodi.sourceforge.net/DTD/sodipodi-0.dtd"
   xmlns="http://www.w3.org/2000/svg"
   xmlns:svg="http://www.w3.org/2000/svg"><defs
     id="defs1" /><sodipodi:namedview
     id="namedview1"
     pagecolor="#ffffff"
     bordercolor="#000000"
     borderopacity="0.25"
     inkscape:showpageshadow="2"
     inkscape:pageopacity="0.0"
     inkscape:pagecheckerboard="0"
     inkscape:deskcolor="#d1d1d1"
     inkscape:zoom="3.010204"
     inkscape:cx="210.45085"
     inkscape:cy="134.37627"
     inkscape:window-width="2560"
     inkscape:window-height="1369"
     inkscape:window-x="-8"
     inkscape:window-y="-8"
     inkscape:window-maximized="1"
     inkscape:current-layer="layer11"><inkscape:page
       x="0"
       y="0"
       width="687"
       height="588"
       id="page2"
       margin="0"
       bleed="0" /></sodipodi:namedview><g
     inkscape:groupmode="layer"
     id="layer11"
     inkscape:label="капюшон"><path
       style="fill:#ffffff;stroke:#000000"
       d="M 343.1661,120.92203 C 294.38091,117.53588 255.93147,102.56118 227.81777,75.997906 215.5407,29.841031 323.68911,23.96171 341.17289,24.915255 350.88474,24.571198 458.06063,30.763356 457.59573,75.893843 424.77699,101.23898 386.63378,116.24838 343.1661,120.92203 Z"
       id="path4"
       sodipodi:nodetypes="ccccc" /><path
       style="fill:none;stroke:#000000"
       d="m 343.1661,120.92203 c -35.93833,-17.57511 -99.80687,-12.24187 -96.04785,-70.887632 0.90692,-14.149242 31.24653,-21.766352 94.05464,-25.119143 56.69273,3.632327 89.05386,19.372241 93.63307,26.998369 22.21786,37.001224 -58.96808,48.130766 -91.63986,69.008406 z"
       id="path5"
       sodipodi:nodetypes="cscsc" /><path
       style="fill:none;stroke:#000000"
       d="M 248.1303,69.045561 C 310.24218,52.405567 377.92551,52.592227 438.22438,69.605539"
       id="path6"
       sodipodi:nodetypes="cc" /></g></svg>
