<?xml version="1.0" encoding="UTF-8" standalone="no"?>
<!-- Created with Inkscape (http://www.inkscape.org/) -->

<svg
   version="1.1"
   id="svg1"
   width="687"
   height="588"
   viewBox="0 0 687 588"
   sodipodi:docname="hood_preview.svg"
   inkscape:version="1.4.2 (f4327f4, 2025-05-13)"
   inkscape:export-filename="Для работы\ТЕСТ2.svg"
   inkscape:export-xdpi="96"
   inkscape:export-ydpi="96"
   xml:space="preserve"
   xmlns:inkscape="http://www.inkscape.org/namespaces/inkscape"
   xmlns:sodipodi="http://sodipodi.sourceforge.net/DTD/sodipodi-0.dtd"
   xmlns="http://www.w3.org/2000/svg"
   xmlns:svg="http://www.w3.org/2000/svg"><defs
     id="defs1" /><sodipodi:namedview
     id="namedview1"
     pagecolor="#ffffff"
     bordercolor="#000000"
     borderopacity="0.25"
     inkscape:showpageshadow="2"
     inkscape:pageopacity="0.0"
     inkscape:pagecheckerboard="0"
     inkscape:deskcolor="#d1d1d1"
     inkscape:zoom="1.505102"
     inkscape:cx="342.1695"
     inkscape:cy="254.80001"
     inkscape:window-width="2560"
     inkscape:window-height="1369"
     inkscape:window-x="-8"
     inkscape:window-y="-8"
     inkscape:window-maximized="1"
     inkscape:current-layer="layer11"><inkscape:page
       x="0"
       y="0"
       width="687"
       height="588"
       id="page2"
       margin="0"
       bleed="0" /></sodipodi:namedview><g
     inkscape:groupmode="layer"
     id="layer11"
     inkscape:label="капюшон"><path
       style="fill:#ffffff;stroke:#000000;stroke-width:2.80839"
       d="M 344.22805,417.66294 C 207.21998,408.15331 99.23879,366.09844 20.284448,291.49827 -14.194407,161.87157 289.52898,145.36012 338.63033,148.03804 c 27.2747,-0.96623 328.26688,16.42377 326.96125,143.16799 -92.16796,71.17914 -199.28914,113.33146 -321.36353,126.45691 z"
       id="path4"
       sodipodi:nodetypes="ccccc" /><path
       style="fill:none;stroke:#000000;stroke-width:2.80839"
       d="M 344.22805,417.66294 C 243.29904,368.3051 63.931,383.28294 74.487793,218.58252 77.034786,178.84585 162.24038,157.454 338.63033,148.03804 497.84588,158.23906 588.7287,202.44293 601.58892,223.86011 663.98543,327.77417 435.98329,359.0303 344.22805,417.66294 Z"
       id="path5"
       sodipodi:nodetypes="cscsc" /><path
       style="fill:none;stroke:#000000;stroke-width:2.80839"
       d="M 77.330035,271.97336 C 251.76469,225.2417 441.84618,225.76592 611.18919,273.546"
       id="path6"
       sodipodi:nodetypes="cc" /></g></svg>
