<?xml version="1.0" encoding="UTF-8" standalone="no"?>
<!-- Created with Inkscape (http://www.inkscape.org/) -->

<svg
   width="210mm"
   height="297mm"
   viewBox="0 0 210 297"
   version="1.1"
   id="svg1"
   xml:space="preserve"
   inkscape:version="1.4.2 (f4327f4, 2025-05-13)"
   sodipodi:docname="leg_preview.svg"
   inkscape:export-filename="Для работы\СПОРТ. ШТАНЫ\макет спортивных штанов ПРАВАЯ НОГА.svg"
   inkscape:export-xdpi="96"
   inkscape:export-ydpi="96"
   xmlns:inkscape="http://www.inkscape.org/namespaces/inkscape"
   xmlns:sodipodi="http://sodipodi.sourceforge.net/DTD/sodipodi-0.dtd"
   xmlns="http://www.w3.org/2000/svg"
   xmlns:svg="http://www.w3.org/2000/svg"><sodipodi:namedview
     id="namedview1"
     pagecolor="#ffffff"
     bordercolor="#000000"
     borderopacity="0.25"
     inkscape:showpageshadow="2"
     inkscape:pageopacity="0.0"
     inkscape:pagecheckerboard="0"
     inkscape:deskcolor="#d1d1d1"
     inkscape:document-units="mm"
     inkscape:zoom="0.7884049"
     inkscape:cx="147.13252"
     inkscape:cy="582.82236"
     inkscape:window-width="2560"
     inkscape:window-height="1369"
     inkscape:window-x="-8"
     inkscape:window-y="-8"
     inkscape:window-maximized="1"
     inkscape:current-layer="layer7"><inkscape:page
       x="0"
       y="0"
       width="210"
       height="297"
       id="page2"
       margin="0"
       bleed="0" /></sodipodi:namedview><defs
     id="defs1" /><g
     inkscape:groupmode="layer"
     id="layer7"
     inkscape:label="Слой 4"><path
       d="m 119.88868,29.60161 c 14.25113,-0.495611 27.8128,0.332436 41.28049,-1.416698 12.61508,28.592708 13.26403,43.509827 13.45468,57.9032 0.48879,60.803278 -0.19684,121.007888 -2.64288,182.359018 -0.25651,6.19432 0.0663,10.47534 -3.7884,15.30642 -11.38729,1.42507 -21.4052,1.42551 -30.62916,-0.0497 -4.02314,-2.3691 -4.06959,-9.70566 -4.50492,-16.33781 C 130.0882,211.29133 126.50696,97.314945 119.94874,95.458398 Z"
       style="display:inline;fill:none;stroke:#000000;stroke-width:0.378847"
       id="path1-8"
       sodipodi:nodetypes="ccccccccc" /><path
       style="display:inline;fill:none;stroke:#000000;stroke-width:0.378982"
       d="M 88.508045,29.14201 C 74.251849,28.646225 60.685357,29.474564 47.212885,27.724811 34.593335,56.327678 33.94414,71.250111 33.75342,85.648584 c -0.48897,60.824896 0.196908,121.050906 2.643834,182.423836 0.256581,6.19654 -0.06632,10.47906 3.789733,15.31187 11.391332,1.42557 21.412812,1.42601 30.640055,-0.0497 4.024557,-2.36995 4.071038,-9.70912 4.506522,-16.34362 2.971347,-56.09461 6.553845,-170.111499 13.114393,-171.968702 z"
       id="path1"
       sodipodi:nodetypes="ccccccccc" /></g></svg>
