<svg width="516" height="453" viewBox="0 0 516 453" fill="none" xmlns="http://www.w3.org/2000/svg">
<path d="M402 382.5L404.5 420C291.826 431.237 227.957 431.777 112.5 420V382.5M402 382.5C239.346 397.656 208.529 387.703 112.5 382.5M402 382.5C405.963 379.494 408.114 376.869 409.896 373M412 367.5L416 315C415.671 295.589 413.104 283.776 408 262.5C407.738 217.189 405.109 190.154 399 141M412 367.5C421.425 389.577 441.5 420 445.5 420M412 367.5C411.294 369.617 410.626 371.413 409.896 373M399 141L436 124.756M399 141L397.116 132M78.5 124.5L74.5 123L77.2357 117M78.5 124.5C40.9706 224.169 26.1027 280.792 5.5 382.5L10 398M78.5 124.5L112.5 141M10 398C3.32563 412.128 2.13557 419.678 1 433L50.5 452C60.8552 442.007 64.5239 434.885 68 420M10 398C31.4295 411.395 44.0315 416.594 68 420M68 420L78.5 416.5L101.5 367.5M101.5 367.5C103.044 370.713 104.297 373.31 105.66 375.5M101.5 367.5C94.7354 286.359 94.3333 238.625 112.5 141M112.5 382.5C109.427 380.547 107.449 378.372 105.66 375.5M436 124.756L440 123C438.932 120.249 437.893 117.587 436.879 115M436 124.756C471.994 223.569 485.423 280.631 509 382.5L504.5 398M504.5 398C508.157 407.025 510.505 415.206 515 433C497.336 442.309 486.326 446.601 464 452C452.715 441.133 449.5 420 445.5 420M504.5 398C482.164 412.456 469.249 417.239 445.5 420M409.896 373L358.5 379.5C259.12 384.467 203.841 382.773 105.66 375.5M112.5 141L114.105 132M124 76.5L114.105 132M385.5 76.5L397.116 132M397.116 132L436.879 115M436.879 115C423.948 82.0048 415.024 61.3099 399 26.5C384.273 15.4434 375.099 9.78285 356.5 1C276.721 57.867 232.389 57.1622 154 1C140.848 8.29478 133.064 13.9186 118.5 26.5L77.2357 117M114.105 132C97.5937 129.584 90.1874 125.215 77.2357 117" stroke="black"/>
</svg>
