<svg width="211" height="118" viewBox="0 0 211 118" fill="none" xmlns="http://www.w3.org/2000/svg">
<path d="M77.5 106.611C48.4625 91.2321 34.0997 81.9166 1.35751 73.4649M1.35751 73.4649L10 58.1112C15.1343 47.6757 18.5267 39.5231 21.5242 30.1112M1.35751 73.4649C12.45 84.7478 36.7026 98.4365 57.5 106.611C72.7454 112.855 80.545 113.263 94 117.111M121 108.611L118 115.5M121 108.611C150.216 95.0231 166.358 84.548 196.211 78.6112M121 108.611C169.006 56.098 170.11 53.8945 188.42 30.1112M118 115.5C155.891 103.919 171.187 96.818 196.211 78.6112M118 115.5C112.198 116.124 103.5 115.5 94 117.111M196.211 78.6112C202.832 73.023 205.288 73.3861 210 73.1112C210.195 65.9095 208.202 62.5969 200.5 58.1112C195.524 48.2091 192.015 40.3431 188.42 30.1112M41.5 1.89549C37.1968 2.72026 33.0038 4.44678 27.5 8.1112C25.4095 16.7614 23.5577 23.7261 21.5242 30.1112M41.5 1.89549C45.1358 1.19865 48.8501 1.14553 53.5 1.1112C67.2843 3.84086 80.8464 4.38343 103.5 5.6112C128.279 3.95631 140.417 2.97939 157.5 1.1112C166.856 0.731989 172.103 0.939543 181.5 8.1112C184.063 16.9406 186.257 23.9543 188.42 30.1112M41.5 1.89549L35.5 8.1112C34.27 13.4222 34.2831 16.0826 37 19.6112M37 19.6112C34.4904 20.4931 62.566 49.523 64 51.1112C81.4453 67.8398 90.3294 78.7214 103.5 102.611M37 19.6112C90.6966 14.1903 120.803 14.3566 174.5 19.6112M103.5 102.611L174.5 19.6112M103.5 102.611L94 117.111M174.5 19.6112C175.772 11.4596 175.112 7.25795 166 1.89549M21.5242 30.1112L72 83.1112C82.6337 92.5793 86.0822 100.361 94 117.111" stroke="black"/>
</svg>
