<svg width="208" height="146" viewBox="0 0 208 146" fill="none" xmlns="http://www.w3.org/2000/svg">
<path d="M30.5 4.5L18 6.5C19.7734 48.6514 15.8844 66.1777 1 87.5L2.83333 105.5M30.5 4.5L57 2.5L82.5 1H106L143.5 2.5L175 4.5M30.5 4.5V41.5C30.5 41.5 28.5 64 27.5 67.5C26.5 71 18 89.5 18 89.5C12.2358 98.1892 8.89623 101.402 2.83333 105.5M175 4.5L188.5 6.5V21.5L191 44.5L197 71.5L207 89.5L205.308 105.5M175 4.5L176.5 47.5C178.144 64.1893 180.489 72.2594 186.5 85C192.64 96.6407 196.811 100.969 205.308 105.5M2.83333 105.5L6.5 141.5C83.0024 145.637 125.704 145.703 201.5 141.5L205.308 105.5" stroke="black"/>
</svg>
